<?xml version="1.0" encoding="UTF-8" standalone="no"?>
<svg
   width="79.43734"
   height="19.772522"
   viewBox="0 0 79.43734 19.772522"
   fill="none"
   stroke="#21d2ee"
   stroke-width="2"
   stroke-linecap="round"
   stroke-linejoin="round"
   class="lucide lucide-anvil"
   version="1.1"
   id="svg5"
   xmlns:xlink="http://www.w3.org/1999/xlink"
   xmlns="http://www.w3.org/2000/svg"
   xmlns:svg="http://www.w3.org/2000/svg">
  <defs
     id="defs5">
    <linearGradient
       id="linearGradient6">
      <stop
         style="stop-color:#21d2ee;stop-opacity:1;"
         offset="0"
         id="stop6" />
      <stop
         style="stop-color:#21d2ee;stop-opacity:0;"
         offset="1"
         id="stop7" />
    </linearGradient>
    <linearGradient
       xlink:href="#linearGradient6"
       id="linearGradient8"
       gradientUnits="userSpaceOnUse"
       x1="26.933004"
       y1="15.283934"
       x2="60.943943"
       y2="15.283934"
       gradientTransform="matrix(1.369189,0,0,1.369189,-11.960765,-9.7784624)" />
  </defs>
  <path
     d="M 6,7 H 5 A 4,4 0 0 1 1,3 1,1 0 0 1 2,2 h 4"
     id="path1" />
  <path
     d="M 6,2 A 1,1 0 0 1 7,1 h 13 a 1,1 0 0 1 1,1 7,7 0 0 1 -7,7 H 7 A 1,1 0 0 1 6,8 Z"
     id="path2" />
  <path
     d="m 8,9 v 5"
     id="path3" />
  <path
     d="m 14,9 v 5"
     id="path4" />
  <path
     d="m 4,17 a 3,3 0 0 1 3,-3 h 8 a 3,3 0 0 1 3,3 1,1 0 0 1 -1,1 H 5 A 1,1 0 0 1 4,17"
     id="path5" />
  <text
     xml:space="preserve"
     style="font-style:normal;font-variant:normal;font-weight:normal;font-stretch:normal;font-size:18px;line-height:0;font-family:sans-serif;-inkscape-font-specification:sans-serif;text-align:start;letter-spacing:0px;writing-mode:lr-tb;direction:ltr;text-anchor:start;fill:#21d2ee;fill-opacity:1;stroke:url(#linearGradient8);stroke-width:0;stroke-dasharray:none"
     x="24.507257"
     y="14.532661"
     id="text6"
     transform="scale(0.95347781,1.0487921)"><tspan
       id="tspan6"
       x="24.507257"
       y="14.532661"
       style="font-style:normal;font-variant:normal;font-weight:normal;font-stretch:normal;font-size:18px;line-height:0;font-family:sans-serif;-inkscape-font-specification:sans-serif;text-align:start;letter-spacing:0px;text-anchor:start;fill:#21d2ee;fill-opacity:1;fill-rule:nonzero;stroke:url(#linearGradient8);stroke-width:0;stroke-dasharray:none;stroke-opacity:1">GoiPay</tspan></text>
</svg>
